# xmcd CD database file
#
# Track frame offsets:
#	150
#	19762
#	39106
#	59997
#	80549
#	95459
#	113187
#	136688
#	148502
#	167313
#	184989
#	217311
#	246870
#	286530
#
# Disc length: 4397 seconds
#
# Revision: 0
# Processed by: cddbd v1.5.1PL0 Copyright (c) Steve Scherf et al.
# Submitted via: CDex 1.51
#
DISCID=c2112b0e
DTITLE=Gene Simmons and Sonny Stitt - We'll be together again - Boss tenors
DYEAR=1997
DGENRE=Jazz
TTITLE0=Red sails in the sunset
TTITLE1=But not for me
TTITLE2=A pair of red pants
TTITLE3=We'll be together again
TTITLE4=A mess
TTITLE5=New blues up and down
TTITLE6=My foolish heart
TTITLE7=Water jug
TTITLE8=Autumn leaves
TTITLE9=Time on my hands
TTITLE10=There is no greater love
TTITLE11=The one before this
TTITLE12=Blues and down
TTITLE13=Counter clockwise
EXTD=YEAR: 1997
EXTT0=
EXTT1=
EXTT2=
EXTT3=
EXTT4=
EXTT5=
EXTT6=
EXTT7=
EXTT8=
EXTT9=
EXTT10=
EXTT11=
EXTT12=
EXTT13=
PLAYORDER=
